<svg width="60" height="60" version="1.1" viewBox="0 0 312 312" xmlns="http://www.w3.org/2000/svg"><g fill="none" fill-rule="evenodd"><g transform="translate(35 35)" fill="#fff" fill-rule="nonzero"><path id="a" d="m243 0v243h-52.898v-8h44.898v-227h-227v227h138.15l3e-3 3e-3 0.044243-3e-3 32.247 26.627-32.247-99.393 7.6095-2.4689 36.5 112.5-6.3572 4.3142-40.517-33.58h-143.43v-243h243z"/> <polygon points="139 123 139 215 131 215 131 123"/> <polygon points="167.5 123 167.5 165 131.5 165 131.5 157 159.5 157 159.5 131 131.5 131 131.5 123"/> <polygon points="27.23 109 27.23 28.061 33.729 28.061 63.878 88.116 63.879 28 71.879 28 71.879 109 65.52 109 35.23 48.882 35.23 109"/> <path d="m131.05 28v8h-37.053v20h37.053v8h-37.053v37h37.053v8h-45.053v-81h45.053z"/> <path d="m145.99 109v-81h8l-1.88e-4 73h21.007l8.12e-4 -73h8l-8.12e-4 73h21.993l1.88e-4 -73h8v81h-67z"/> <polygon points="32.23 122 32.23 207 62.23 207 62.23 122 70.23 122 70.23 215 24.23 215 24.23 122"/> <polygon points="51.23 123 51.23 215 43.23 215 43.23 123"/> <path d="m119 122h-36v93h36v-93zm-8 8v77h-20v-77h20z"/> <path d="m188.5 123v34h18.839l8.44e-4 -34h8v42h-10.908l15.568 50h-8.2812l-15.656-50h-7.563v50h-8v-92h8z"/></g></g></svg>