<svg width="40" height="40" version="1.1" viewBox="0 0 179 180" xmlns="http://www.w3.org/2000/svg"><g fill="none" fill-rule="evenodd"><path d="m48.024 99.52c3.84 0 7.68-0.768 11.52-1.344 9.216-1.152 18.432-2.304 27.648-3.84 14.976-2.496 30.336-3.456 45.12-7.296 0.384-0.96 0.384-1.92 0.384-2.88 0-2.304-0.576-4.608-0.576-6.912 0-4.416 1.344-8.832 1.344-13.248 0-5.568-2.112-6.144-6.528-8.256-0.96-2.112-1.344-4.608-2.88-6.336-0.192 0-0.768-0.384-0.96-0.384-0.384 0-1.344 0.384-1.92 0.384-0.384 0-0.768-0.192-0.96-0.576 1.92-1.728 2.688-5.952 5.568-5.952 2.304 0 4.416 0.96 6.528 1.344 3.648 0.768 7.872 1.152 11.712 1.152 2.112 0 5.952-0.192 8.064-0.96 1.152-0.384 0.576-0.96 1.536-1.152 0 0.384 0.192 0.96 0.768 0.96 1.344-1.536 3.648-2.304 5.568-2.496-0.192-0.576-0.768-1.536-0.768-2.112 0-1.728 3.648-2.496 4.992-2.496 4.032 0 7.872 1.92 11.904 1.92 0.768 0 1.344 0 2.112-0.192-10.368-4.608-20.928-8.832-31.296-13.248 0.576-0.96 0.768-2.304 0.768-3.456 0-4.032-2.112-7.68-2.112-11.712 0-1.152 0.192-2.496 0.768-3.456-1.152-2.88-3.456-3.456-6.336-3.456-8.256 0-14.016 6.144-20.352 10.368-4.8-2.688-8.64-5.76-14.592-5.76-2.496 0-7.872 0.384-7.872 4.032 0 2.304 1.728 5.184 2.112 7.68 0.192 0.768 0.192 1.536 0.192 2.304v1.344c0 1.536 0 3.264 0.768 4.608 1.536 3.072 5.376 4.032 6.336 7.104-1.536 4.608-1.728 9.792-3.84 14.208-13.44 0.576-27.072 1.536-40.512 1.728 0.384-1.344 0.576-2.88 0.576-4.224 0-1.92-0.384-4.608-0.384-7.104 0-2.112 0.192-3.84 1.152-5.184 1.728-2.496 5.76-2.496 7.872-4.416 0-1.536 2.112-1.728 2.112-2.688v-0.576c3.072-0.384 4.8-2.688 7.488-3.648 5.568 0.768 10.944 2.88 16.512 2.88-8.832-5.76-20.544-8.448-30.72-11.328-1.728-2.112-4.224-4.608-4.224-7.68 0-1.152 0.576-2.496 1.344-3.456-1.536-0.96-3.072-2.304-4.8-3.072-7.104 1.152-11.52 4.8-11.52 12.288v0.384c-2.688 0.768-5.184 1.728-8.064 2.304-1.152 0.192-2.88 0-4.032 0.384s-0.384 0.96-1.536 1.344c-1.344 0.384-3.456 0.384-4.8 0.576-3.84 0.768-7.488 1.92-11.136 3.072-3.84 1.344-10.56 2.88-13.44 5.952-2.112 2.112-1.92 5.376-3.648 7.68 6.528 5.184 11.136 14.4 20.544 14.4 7.68 0 14.4-8.448 24-8.64 1.152 2.688 1.92 5.76 2.496 8.64-8.064 2.496-15.552 21.888-15.552 29.76 0 4.224 6.912 17.088 9.984 19.392 1.536 1.152 3.648 1.344 5.568 1.344zm59.904-27.456 0.384-0.96c0-1.152-0.96-2.112-1.536-3.072 2.112-1.536 5.952-1.152 8.448-1.344l0.96 4.8c-2.688 0.384-5.568 0.576-8.256 0.576zm-47.808 2.88c0.96-2.688 2.112-5.376 2.88-8.256 1.728 0.384 2.88 1.728 4.416 2.496v5.184c-2.496 0-4.8 0.384-7.296 0.576zm30.528-0.96h-7.104c-0.768-1.536-1.92-1.92-1.92-4.032 1.536-1.152 3.648-1.152 5.376-1.152h4.416c-0.192 1.728-0.384 3.456-0.768 5.184zm-25.92 105.79c11.328-7.68 18.048-19.968 28.992-28.032v0.96c0 0.576-0.768 1.344-0.768 1.92 0 0.192 0.192 0.192 0.192 0.384 6.72-7.872 14.976-14.4 22.464-21.504l-1.728-1.92c-2.304 0.384-3.456 2.496-5.568 3.072 0.96-3.072 4.416-1.536 4.416-6.912 0-7.296-12.288-9.792-17.28-12.864 0-0.384 0.192-0.768 0.192-0.96 0-2.88-2.88-2.88-3.648-5.376 6.336-1.344 13.056-1.728 19.392-1.728h4.416c4.224 0 9.792 0.192 11.904 1.536 3.84 2.496 2.496 10.368 3.84 14.4 0-0.192 0.192-0.768 0.384-0.768s0.192 0.192 0.384 0.192c0.576 3.456 0.768 7.104 0.768 10.752 2.112 1.92 4.992 1.728 7.68 2.112 1.344-6.528 4.224-12.48 4.224-19.2 0-6.528-3.84-17.28-9.6-20.928-0.48 0.16-1.2267 0.18667-2.1289 0.19111l-2.0951 8.889e-4c-2.688 0-5.568 0.192-6.336 1.92-3.648-1.152-7.488-1.344-11.136-1.344-4.8 0-9.6 0.384-14.4 0.384-1.536 0-2.88-0.576-4.416-0.576-5.376 0-10.368 2.688-15.744 2.688-13.248 0-26.112 3.264-38.784 6.912-2.88-2.496-6.336-3.84-7.296-7.872-1.152-1.152-2.496-2.112-4.032-2.112-3.84 0-10.944 10.752-13.056 13.824-3.456 4.992-5.76 11.328-5.76 17.472 0 4.608 2.112 5.184 4.416 8.256h0.384c1.92 0 2.496 0.96 4.032 0.96h1.344c0.74057 1.8514 1.6597 2.0961 3.4459 2.1112l1.1621 8.05e-4c1.344 0 2.88-0.192 4.032-0.96 0.576-1.728 0.768-4.608 3.264-4.608 0.96-8.448 9.6-9.984 11.328-17.856 2.112 0.384 4.032 2.112 6.144 2.112 0.768 0 1.344-0.192 1.92-0.576l1.536 0.96-1.152-0.96c9.024-3.456 18.432-6.144 28.032-6.336-15.744 9.216-34.368 14.208-37.056 35.328 1.152 0.384 2.304 0.576 3.456 0.576 1.344 0 2.688-0.192 4.032-0.576 0.192 2.688 1.536 4.224 3.84 5.568 0.96-0.384 1.92-0.576 2.88-0.576 0.576 0 1.344 0.192 1.92 0.576 1.536-1.92 3.648-2.496 5.952-2.88 0.576 6.336 7.296 6.912 12.096 8.448-4.224 5.184-8.064 10.368-12.096 15.744-3.264-2.496-6.336-4.992-9.6-7.296 3.072 4.416 9.216 8.256 9.216 14.016v1.344zm21.696-75.264h-4.608c1.536-1.152 2.88-0.384 4.416-1.728l0.384 1.152c0.576 0 0.768-0.768 0.768-1.152 0.576 0.192 0.96 0.192 1.536 0.192 2.304 0 4.992-0.96 7.104-0.96 0.768 0 1.536 0 2.112 0.384l0.384-0.768h1.536c1.92 0 4.032-0.192 5.952-0.192s3.84 0.384 5.568 0.768c-8.256 1.152-16.704 2.304-25.152 2.304zm25.92-2.112c0.192-0.384 0.384-0.768 0.96-0.768s1.152 0.192 1.92 0.192c0 0.384-2.304 0.384-2.88 0.576zm-26.112 41.664c-1.92-1.344-2.688-3.648-4.416-5.376 3.264-2.496 7.296-3.84 11.328-4.224-2.496 3.072-4.992 6.144-6.912 9.6z" fill="#fff" fill-rule="nonzero"/></g></svg>